<?xml version="1.0" encoding="iso-8859-1"?>
<!-- Generator: Adobe Illustrator 19.0.0, SVG Export Plug-In . SVG Version: 6.00 Build 0)  -->
<svg version="1.1" id="Capa_1" xmlns="http://www.w3.org/2000/svg" xmlns:xlink="http://www.w3.org/1999/xlink" x="0px" y="0px"
	 viewBox="0 0 59.985 59.985" style="enable-background:new 0 0 59.985 59.985;" xml:space="preserve">
<g>
	<path d="M59.692,10.297l-0.254-0.254c0.575-0.906,0.471-2.122-0.318-2.911L52.677,0.69c-0.789-0.79-2.005-0.894-2.911-0.319
		l-0.075-0.075c-0.188-0.188-0.442-0.293-0.707-0.293h-2c-0.265,0-0.52,0.105-0.707,0.293l-1,1
		c-0.188,0.188-0.293,0.441-0.293,0.707v2h-2c-0.265,0-0.52,0.105-0.707,0.293l-1,1c-0.188,0.188-0.293,0.441-0.293,0.707v2
		c0,0.266,0.105,0.52,0.293,0.707l0.065,0.065c-0.685,1.008-0.115,2.51,0.494,3.335c0.032,0.064,0.06,0.146,0.071,0.204
		l-2.264,2.205l0,0l0,0l-5.7,5.551c-0.467-0.316-0.922-0.597-1.375-0.829c-4.082-2.102-7.642-2.22-10.03-0.334
		c-0.426,0.271-2.377,1.647-4.22,5.192c-1.349,2.593-4.539,2.896-5.482,2.926c-0.428,0.014-0.824,0.063-1.213,0.149
		c-2.094,0.467-7.208,1.89-9.468,5.001L2.07,32.296c-3.489,4.887-2.462,12.729,2.289,17.481c0.867,0.867,1.968,1.977,3.339,3.372
		c1.383,1.36,2.493,2.461,3.36,3.328c2.328,2.327,5.277,3.505,8.333,3.504c2.618,0,5.313-0.864,7.761-2.611l0.107-0.078
		c3.117-2.263,4.54-7.378,5.007-9.472c0.086-0.389,0.135-0.785,0.149-1.211c0.04-1.213,0.405-4.174,2.927-5.484
		c3.544-1.843,4.92-3.794,5.191-4.221c1.885-2.389,1.768-5.947-0.332-10.029c-0.206-0.401-0.446-0.798-0.702-1.19l2.146-2.091l0,0
		l0,0l3.58-3.487c0.001-0.001,0.002-0.001,0.002-0.001c0.001-0.001,0.001-0.002,0.001-0.002l2.317-2.256
		c0.067,0.065,0.143,0.12,0.226,0.164c0.843,0.448,2.315,1.046,3.259,0.452l0.248,0.248c0.188,0.188,0.442,0.293,0.707,0.293h2
		c0.265,0,0.52-0.105,0.707-0.293l1-1c0.188-0.188,0.293-0.441,0.293-0.707v-2h2c0.265,0,0.52-0.105,0.707-0.293l1-1
		c0.188-0.188,0.293-0.441,0.293-0.707v-2C59.985,10.738,59.879,10.484,59.692,10.297z M46.985,2.418l0.414-0.414h1.172l0.414,0.414
		v1.172l-0.414,0.414h-1.172l-0.414-0.414V2.418z M42.985,6.418l0.414-0.414h1.172l0.414,0.414v1.172l-0.414,0.414h-1.172
		l-0.414-0.414V6.418z M40.948,21.481l-2.756-2.756l2.15-2.094l2.756,2.756L40.948,21.481z M33.783,28.46l-2.756-2.756l2.15-2.094
		l2.756,2.756L33.783,28.46z M26.799,35.196c-0.147-0.249-0.307-0.49-0.478-0.722c-0.028-0.038-0.056-0.075-0.084-0.112
		c-0.167-0.219-0.344-0.429-0.53-0.63c-0.03-0.032-0.058-0.066-0.089-0.098c-0.437-0.457-0.922-0.867-1.451-1.218
		c-0.006-0.004-0.012-0.01-0.019-0.014l1.864-1.815l2.756,2.756l-1.943,1.892C26.818,35.222,26.807,35.21,26.799,35.196z
		 M30.201,31.948l-2.756-2.756l2.149-2.094l2.756,2.756L30.201,31.948z M37.366,24.97l-2.756-2.756l2.149-2.093l2.756,2.756
		L37.366,24.97z M38.936,35.699l-0.086,0.126c-0.01,0.018-1.088,1.788-4.43,3.524c-3.556,1.85-3.963,5.974-4.003,7.194
		c-0.01,0.301-0.043,0.576-0.102,0.841c-0.326,1.461-1.594,6.375-4.242,8.298l-0.086,0.063c-4.546,3.245-9.852,2.978-13.513-0.682
		c-0.871-0.871-1.984-1.976-3.36-3.328c-1.364-1.388-2.469-2.501-3.339-3.372c-3.568-3.569-5.376-10.282-2.071-14.911l0.067-0.094
		c1.915-2.637,6.829-3.904,8.289-4.23c0.265-0.059,0.539-0.092,0.841-0.102c1.22-0.04,5.344-0.447,7.193-4.003
		c1.738-3.342,3.508-4.42,3.518-4.426l0.133-0.091c2.342-1.89,5.961-0.488,7.91,0.514c0.271,0.14,0.546,0.302,0.825,0.478
		l-10.239,9.972c-0.865-0.298-1.789-0.467-2.754-0.467c-4.687,0-8.5,3.813-8.5,8.5h2c0-3.584,2.916-6.5,6.5-6.5
		c0.967,0,1.883,0.218,2.708,0.599c0.152,0.07,0.304,0.143,0.45,0.225c0.049,0.027,0.094,0.058,0.142,0.086
		c0.14,0.083,0.278,0.168,0.411,0.261c0.04,0.028,0.077,0.058,0.116,0.086c0.138,0.101,0.274,0.206,0.403,0.318
		c0.027,0.023,0.053,0.049,0.08,0.072c0.138,0.123,0.271,0.249,0.398,0.383c0.017,0.018,0.033,0.037,0.05,0.055
		c0.133,0.143,0.26,0.292,0.38,0.447c0.01,0.013,0.019,0.026,0.029,0.039c0.123,0.162,0.239,0.329,0.347,0.502
		c0.006,0.01,0.012,0.02,0.018,0.03c0.109,0.177,0.21,0.36,0.302,0.547c0.004,0.008,0.008,0.016,0.012,0.024
		c0.092,0.19,0.175,0.385,0.249,0.584c0.259,0.7,0.407,1.453,0.407,2.242c0,3.584-2.916,6.5-6.5,6.5v2c4.687,0,8.5-3.813,8.5-8.5
		c0-0.794-0.118-1.56-0.322-2.29l6.818-6.641c0,0,0,0,0.001,0l0-0.001l3.554-3.462c0.136,0.226,0.269,0.453,0.386,0.68
		C39.425,29.738,40.825,33.358,38.936,35.699z M46.153,16.412l-1.623,1.581l-2.756-2.756l1.613-1.571
		c0.852-0.852,0.494-2.045,0.148-2.615c-0.02-0.033-0.042-0.065-0.065-0.096c-0.227-0.292-0.389-0.696-0.438-0.951h1.953
		c0.265,0,0.52-0.105,0.707-0.293l1-1c0.188-0.188,0.293-0.441,0.293-0.707v-2h2c0.265,0,0.52-0.105,0.707-0.293l1-1
		c0.188-0.188,0.293-0.441,0.293-0.707V2.005c0.083-0.007,0.174-0.005,0.279,0.099l6.441,6.441c0.087,0.088,0.101,0.189,0.101,0.242
		c0,0.048-0.011,0.136-0.076,0.216h-1.745c-0.265,0-0.52,0.105-0.707,0.293l-1,1c-0.188,0.188-0.293,0.441-0.293,0.707v1.747
		l-0.252,0.253h-1.748c-0.265,0-0.52,0.105-0.707,0.293l-1,1c-0.188,0.188-0.293,0.441-0.293,0.707v1.715
		c-0.265-0.04-0.75-0.212-1.16-0.414C47.945,15.506,47.02,15.547,46.153,16.412z M53.985,16.589l-0.414,0.414h-1.172l-0.414-0.414
		v-1.172l0.414-0.414h1.172l0.414,0.414V16.589z M57.985,12.589l-0.414,0.414h-1.172l-0.414-0.414v-1.172l0.414-0.414h1.172
		l0.414,0.414V12.589z"/>
	<path d="M15.984,48.661l8.95-8.95c0.391-0.391,0.391-1.023,0-1.414s-1.023-0.391-1.414,0l-8.95,8.95l-0.707-0.707l9.828-9.829
		c0.391-0.391,0.391-1.023,0-1.414s-1.023-0.391-1.414,0l-9.828,9.829l-0.708-0.708l8.95-8.949c0.391-0.391,0.391-1.023,0-1.414
		s-1.023-0.391-1.414,0l-8.95,8.949L9.62,42.297c-0.391-0.391-1.023-0.391-1.414,0c-0.391,0.391-0.391,1.023,0,1.414l0.707,0.707
		l-0.707,0.707c-0.391,0.391-0.391,1.023,0,1.414c0.195,0.195,0.451,0.293,0.707,0.293s0.512-0.098,0.707-0.293l0.707-0.707
		l0.708,0.708l-0.707,0.707c-0.391,0.391-0.391,1.023,0,1.414c0.195,0.195,0.451,0.293,0.707,0.293s0.512-0.098,0.707-0.293
		l0.707-0.707l0.707,0.707l-0.707,0.707c-0.391,0.391-0.391,1.023,0,1.414c0.195,0.195,0.451,0.293,0.707,0.293
		s0.512-0.098,0.707-0.293l0.707-0.707l0.707,0.707c0.195,0.195,0.451,0.293,0.707,0.293s0.512-0.098,0.707-0.293
		c0.391-0.391,0.391-1.023,0-1.414L15.984,48.661z"/>
</g>
<g>
</g>
<g>
</g>
<g>
</g>
<g>
</g>
<g>
</g>
<g>
</g>
<g>
</g>
<g>
</g>
<g>
</g>
<g>
</g>
<g>
</g>
<g>
</g>
<g>
</g>
<g>
</g>
<g>
</g>
</svg>
