<?xml version="1.0" encoding="iso-8859-1"?>
<!-- Generator: Adobe Illustrator 19.0.0, SVG Export Plug-In . SVG Version: 6.00 Build 0)  -->
<svg version="1.1" id="Layer_1" xmlns="http://www.w3.org/2000/svg" xmlns:xlink="http://www.w3.org/1999/xlink" x="0px" y="0px"
	 viewBox="0 0 470.001 470.001" style="enable-background:new 0 0 470.001 470.001;" xml:space="preserve">
<g>
	<g>
		<path d="M467.804,30.481L439.52,2.197c-2.501-2.5-6.408-2.917-9.38-0.992l-36.514,23.642l-2.942-2.943
			c-2.501-2.5-6.408-2.916-9.38-0.992l-33.538,21.714l-13.229-13.229c-1.407-1.407-3.314-2.197-5.304-2.197s-3.896,0.79-5.304,2.197
			L2.196,351.131C0.79,352.538,0,354.445,0,356.435s0.79,3.897,2.196,5.303l106.066,106.066c1.465,1.464,3.385,2.197,5.304,2.197
			c1.919,0,3.839-0.732,5.304-2.197L440.604,146.07c2.929-2.929,2.929-7.678,0-10.606l-13.229-13.229l21.715-33.538
			c1.922-2.969,1.509-6.878-0.992-9.379l-2.943-2.943l23.642-36.514C470.718,36.892,470.305,32.982,467.804,30.481z M166.6,398.861
			l-21.213-21.214l5.303-5.303c2.928-2.928,2.928-7.677,0-10.606l-47.73-47.729l11.314-11.314l47.729,47.729
			c1.465,1.465,3.384,2.197,5.304,2.197c1.919,0,3.839-0.732,5.303-2.197l5.304-5.303l21.214,21.214L166.6,398.861z M134.78,367.041
			c-0.001,0-5.297,5.296-5.304,5.303c-0.007,0.008-5.303,5.304-5.303,5.304l-42.426-42.427l10.606-10.606L134.78,367.041z
			 M124.882,292.088l10.605-10.606l42.427,42.426l-10.607,10.606L124.882,292.088z M209.733,355.728l-21.214-21.214l5.303-5.303
			c1.407-1.406,2.197-3.314,2.197-5.303s-0.79-3.897-2.196-5.303l-47.73-47.73l21.921-21.92l74.246,74.246L209.733,355.728z
			 M252.867,312.594l-74.246-74.246l21.919-21.92l47.729,47.729c1.465,1.464,3.385,2.197,5.304,2.197s3.839-0.732,5.304-2.197
			l5.303-5.303l21.214,21.213L252.867,312.594z M211.146,205.822l10.607-10.607l42.426,42.426l-5.299,5.299
			c-0.01,0.01-5.308,5.308-5.308,5.308L211.146,205.822z M296,269.46l-21.214-21.213l5.303-5.303c2.929-2.929,2.929-7.678,0-10.606
			l-47.73-47.73l11.315-11.314l47.729,47.729c1.407,1.407,3.314,2.197,5.304,2.197s3.896-0.79,5.304-2.197l5.303-5.303
			l21.213,21.213L296,269.46z M254.282,162.687l10.605-10.606l42.427,42.426l-5.301,5.302c-0.005,0.005-5.305,5.305-5.305,5.305
			L254.282,162.687z M339.133,226.327l-21.213-21.214l5.303-5.304c2.929-2.929,2.929-7.678,0-10.606l-47.73-47.729l11.315-11.314
			l47.729,47.73c1.465,1.465,3.384,2.197,5.304,2.197c1.919,0,3.839-0.732,5.304-2.197l5.303-5.303L371.66,193.8L339.133,226.327z
			 M297.415,119.553l10.606-10.606l42.427,42.426l-5.301,5.301c-0.005,0.005-5.306,5.306-5.306,5.306L297.415,119.553z
			 M382.267,183.193l-21.213-21.213l5.303-5.303c1.406-1.406,2.196-3.314,2.196-5.303c0-1.989-0.79-3.897-2.196-5.303l-47.73-47.73
			l15.91-15.91c2.929-2.929,2.929-7.678,0-10.606c-2.929-2.928-7.677-2.93-10.607,0l-21.213,21.213l-43.132,43.132
			c-0.002,0.002-21.213,21.212-21.213,21.212c-0.003,0.003-21.915,21.916-21.915,21.916c-0.013,0.013-21.218,21.218-21.218,21.218
			c-0.005,0.005-65.052,65.053-65.052,65.053c-0.007,0.007-43.133,43.133-43.133,43.133c-0.008,0.008-21.213,21.213-21.213,21.213
			c-0.009,0.009-21.218,21.218-21.218,21.218c-2.929,2.929-2.929,7.678,0,10.606c1.465,1.464,3.385,2.197,5.304,2.197
			s3.839-0.732,5.304-2.197L71.14,345.83l47.729,47.729c1.407,1.407,3.314,2.197,5.304,2.197c1.99,0,3.896-0.79,5.304-2.197
			l5.303-5.303l21.213,21.213l-42.426,42.426l-95.46-95.459L329.234,45.307l12.151,12.151c0.017,0.018,0.035,0.034,0.052,0.052
			l71.065,71.065c0.034,0.034,12.193,12.193,12.193,12.193L382.267,183.193z M434.307,65.528l-15.179-15.179
			c-2.93-2.929-7.678-2.929-10.607,0c-2.929,2.929-2.929,7.678,0,10.606l21.749,21.748c0.018,0.018,0.035,0.036,0.053,0.053
			l2.879,2.879l-16.674,25.752l-57.915-57.915l25.753-16.674l2.942,2.943c2.502,2.501,6.41,2.917,9.38,0.992l36.514-23.642
			l19.707,19.707L434.307,65.528z"/>
	</g>
</g>
<g>
</g>
<g>
</g>
<g>
</g>
<g>
</g>
<g>
</g>
<g>
</g>
<g>
</g>
<g>
</g>
<g>
</g>
<g>
</g>
<g>
</g>
<g>
</g>
<g>
</g>
<g>
</g>
<g>
</g>
</svg>
